PathFileType	4	(X/Y/Z)	s06c0303.trc
DataRate	CameraRate	NumFrames	NumMarkers	Units	OrigDataRate	OrigDataStartFrame	OrigNumFrames
200	200	6	48	mm	200	500	2000
Frame#	Time	racr			lacr			c7			jug			rlel			rdr			llel			ldr			s2			lic			ric			lasi			rasi			rpsi			lpsi			rgt			lgt			rth1			rth2			rth3			rth4			rlfc			rmfc			rsh1			rsh2			rsh3			rsh4			rlmal			rcal			rtoe			rmt5			lth1			lth2			lth4			lth3			llfc			lmfc			llmal			lcal			lmt5			lsh1			lsh2			lsh3			lsh4			ltoe			SBIKE			LBIKE			RBIKE			
		X1	Y1	Z1	X2	Y2	Z2	X3	Y3	Z3	X4	Y4	Z4	X5	Y5	Z5	X6	Y6	Z6	X7	Y7	Z7	X8	Y8	Z8	X9	Y9	Z9	X10	Y10	Z10	X11	Y11	Z11	X12	Y12	Z12	X13	Y13	Z13	X14	Y14	Z14	X15	Y15	Z15	X16	Y16	Z16	X17	Y17	Z17	X18	Y18	Z18	X19	Y19	Z19	X20	Y20	Z20	X21	Y21	Z21	X22	Y22	Z22	X23	Y23	Z23	X24	Y24	Z24	X25	Y25	Z25	X26	Y26	Z26	X27	Y27	Z27	X28	Y28	Z28	X29	Y29	Z29	X30	Y30	Z30	X31	Y31	Z31	X32	Y32	Z32	X33	Y33	Z33	X34	Y34	Z34	X35	Y35	Z35	X36	Y36	Z36	X37	Y37	Z37	X38	Y38	Z38	X39	Y39	Z39	X40	Y40	Z40	X41	Y41	Z41	X42	Y42	Z42	X43	Y43	Z43	X44	Y44	Z44	X45	Y45	Z45	X46	Y46	Z46	X47	Y47	Z47	X48	Y48	Z48	
500	2.5000	645.853031	1299.339040	-76.327448	635.653375	1294.215277	-386.009719	646.365621	1367.042693	-234.101143	624.059089	1207.172690	-227.293731	542.396667	1062.854383	37.003497	715.796648	924.852762	-46.413026	540.742493	1058.226744	-496.232180	712.538918	918.651129	-413.963749	95.323754	1163.315630	-234.684491	258.709776	1143.314590	-395.860386	244.029337	1102.839790	-68.631571	274.684208	1087.163541	-362.862075	275.110806	1065.259479	-112.655869	130.120714	1195.070677	-197.488236	129.417907	1202.179724	-257.138178	194.396958	1022.903517	-50.901781	231.828361	1089.237794	-433.699143	233.981323	905.367433	-19.399384	275.852701	824.519607	-12.950437	272.853474	737.858333	-22.335824	311.165269	833.817902	-21.895618	291.154967	633.129490	-30.747186	296.338447	606.691400	-137.891714	264.789865	511.355047	-9.022169	269.330192	425.800011	-27.375906	230.917863	348.099934	-36.712256	294.664215	425.576405	-59.360865	208.666072	271.416227	-46.838118	144.748892	266.273447	-96.275388	393.668638	142.661945	-90.359948	295.202109	163.600198	-21.983284	302.017903	1001.902018	-456.713857	382.834685	969.418123	-453.158739	403.365244	995.769174	-437.444128	438.243931	899.125662	-457.231511	475.860515	801.662860	-432.691281	482.024548	788.593824	-317.034967	165.625788	607.999167	-380.440038	100.293572	644.146318	-329.265263	183.411831	462.706423	-395.336552	395.575445	731.227962	-442.032748	336.631029	674.958493	-409.794994	251.795423	649.194296	-400.984808	355.084869	659.015344	-378.946468	239.799021	398.289708	-334.442207	-159.306342	851.841991	-212.457321	-52.789406	80.090360	-405.721685	-51.557729	79.698363	-8.443113	
501	2.5050	646.538708	1299.948935	-77.741423	636.092854	1295.185348	-387.517834	646.828857	1367.551472	-235.494228	624.679873	1207.640534	-228.577225	543.893103	1063.878513	37.505549	715.862941	924.639327	-46.804808	541.274173	1058.797838	-497.366014	712.878092	919.129275	-414.350046	96.449867	1162.468036	-233.096270	258.657885	1144.029749	-395.397477	246.669889	1101.082094	-68.151322	275.252234	1088.127505	-362.156063	277.639213	1063.917335	-112.590642	131.393998	1193.865039	-195.799927	130.015725	1201.503417	-255.193241	195.798555	1020.905599	-51.426258	232.111000	1090.846553	-432.826556	233.922976	903.521563	-19.239566	274.201161	822.043871	-13.541812	270.594245	735.282597	-22.948755	311.150920	831.202055	-21.136574	286.818513	630.298705	-31.339322	292.076520	603.818548	-138.168905	260.759168	508.981603	-8.756449	264.681014	423.398839	-27.216484	226.064833	345.621223	-36.393956	290.003572	422.854475	-59.301393	203.392872	269.209956	-46.310137	139.557669	265.500918	-95.646585	386.140317	136.960232	-90.484097	288.150757	159.614026	-21.801036	303.231260	1004.808275	-457.390119	384.338091	973.320832	-453.987721	404.612715	999.618087	-437.579514	440.639071	903.751757	-459.250303	479.755171	806.758325	-433.892882	486.536849	793.476433	-318.131670	170.880233	611.278086	-380.321049	104.735926	646.744003	-329.395168	191.166204	466.857154	-395.548014	399.841697	736.490526	-442.932145	341.117360	679.961512	-410.753785	256.536622	653.785154	-401.366885	359.753037	663.850868	-380.292801	248.565890	403.434779	-334.405209	-159.371839	851.822572	-212.458382	-52.788573	80.112916	-405.711889	-51.533890	79.699359	-8.463253	
502	2.5100	647.262219	1300.739855	-79.130738	636.770288	1295.861041	-388.994949	647.551515	1368.032115	-236.931429	625.291352	1208.126129	-229.716181	545.496489	1064.774330	37.524904	716.036184	924.588194	-47.341137	541.592731	1059.107590	-498.233083	713.062445	919.335375	-414.725035	97.400967	1161.892530	-230.888574	258.548580	1145.066009	-394.953996	249.208801	1100.016177	-67.733574	275.738699	1089.703817	-361.445549	279.962136	1063.177340	-112.578439	132.588560	1193.425149	-194.162129	130.684367	1201.470587	-253.357569	197.060369	1019.444952	-51.661896	232.057459	1092.837775	-432.002897	233.894662	902.026984	-19.873441	272.998013	819.912816	-14.745307	267.905831	733.586965	-23.355159	308.655199	828.324480	-23.409329	282.911303	628.187881	-31.673010	287.247001	601.547174	-138.632066	255.852132	507.107296	-9.092791	259.858122	421.397832	-27.020293	220.995842	343.800978	-36.004126	285.147505	420.842097	-59.224162	198.207528	267.436078	-45.779992	134.339800	265.526966	-94.860238	378.495516	131.593643	-90.599179	281.037860	156.143386	-21.637958	303.867788	1007.986183	-457.840363	385.284521	977.369009	-454.630969	405.271494	1003.722956	-437.730286	442.304653	908.537738	-460.797208	483.271542	811.886806	-434.829129	490.501767	798.540554	-318.868429	176.071005	614.320734	-380.442808	109.292854	648.655211	-329.532821	199.080672	470.703060	-395.678822	403.940808	741.639817	-443.596625	345.489045	684.775084	-411.534871	261.082028	658.234242	-402.070093	364.315546	668.365697	-381.349761	257.702989	408.316838	-334.366295	-159.459702	851.832286	-212.368807	-52.802224	80.093133	-405.713442	-51.547053	79.678530	-8.434876	
503	2.5150	648.030528	1301.646609	-80.584357	637.742025	1296.352543	-390.533962	648.534781	1368.565499	-238.545105	625.965079	1208.696448	-230.955711	547.143905	1065.962556	37.131986	716.500817	924.530065	-47.767520	541.740496	1059.450713	-499.436951	713.226074	919.258238	-414.989537	98.075003	1162.392175	-228.774092	258.317694	1146.485359	-394.545105	251.471553	1099.587076	-67.444986	275.976562	1091.715912	-360.824429	282.024895	1063.080865	-112.683731	133.801207	1193.652672	-192.569334	131.289787	1202.090116	-251.646881	198.409156	1018.598227	-51.805827	231.759504	1095.345413	-431.261669	233.737059	901.126055	-20.720135	271.684205	818.957178	-14.759028	264.630064	732.723480	-24.167181	307.470851	826.459746	-24.300169	278.796625	626.856256	-32.231933	282.096873	599.872738	-139.201251	250.865012	505.699452	-9.368753	254.809224	420.122197	-26.969732	215.700200	342.689235	-35.534628	279.518887	419.329753	-59.070714	193.201403	266.342201	-45.264843	129.530163	265.954537	-94.200210	370.751337	126.535467	-90.657120	273.845881	152.990614	-21.487756	303.976524	1011.387834	-457.994426	385.763776	981.637309	-455.043386	405.515570	1008.096868	-437.824070	443.408425	913.581498	-461.847760	486.397339	816.998906	-435.350180	493.946367	803.666818	-319.262581	181.163867	616.838827	-380.471688	113.899972	650.136823	-329.673716	207.097338	473.999858	-395.737490	407.811108	746.565248	-444.101168	349.763034	689.208096	-412.101319	265.571966	662.110455	-402.602445	368.841682	672.545829	-382.138822	266.670975	412.817783	-334.549907	-159.445304	851.843586	-212.266713	-52.809224	80.099747	-405.715890	-51.520672	79.660742	-8.443191	
504	2.5200	649.035783	1302.626813	-82.029162	638.828609	1296.567131	-392.180198	649.745762	1369.051399	-240.158642	626.764780	1209.241128	-232.081692	549.030608	1067.235052	36.642066	717.257823	924.306065	-47.982766	541.739551	1059.519885	-500.719467	713.368947	919.508725	-415.495931	98.309907	1163.340202	-225.835245	257.972308	1148.411810	-394.247806	253.578418	1099.857211	-67.407692	275.887324	1094.510029	-360.287818	283.711150	1063.493789	-113.029551	134.953870	1194.575511	-191.039387	131.972675	1203.347950	-249.898334	199.546167	1018.508976	-51.706439	231.109966	1098.213713	-430.703457	233.252642	901.110799	-20.991952	270.050966	818.139038	-16.261235	262.017036	731.749073	-24.563815	306.349982	825.295195	-25.179654	274.147279	626.198688	-33.121593	276.658990	598.954733	-139.932683	246.194489	505.026458	-9.687175	249.206161	419.699364	-27.287291	210.637667	342.054362	-35.248424	274.402750	418.229297	-59.247029	188.333393	265.673673	-44.705846	125.080327	267.025319	-93.563060	362.798280	121.571894	-90.641723	266.573802	150.203381	-21.272786	303.628932	1014.905283	-457.862244	385.790725	985.979127	-455.281626	405.334808	1012.590006	-437.839449	444.241114	918.755012	-462.557349	489.130166	822.015751	-435.483091	496.765223	808.545177	-319.243340	186.130619	618.714251	-380.459423	118.605009	651.081176	-329.659318	214.969188	476.984677	-396.096325	411.455805	751.094454	-444.237112	353.916920	693.138321	-412.406219	269.972139	665.245368	-402.922531	373.166408	676.493253	-382.679281	275.724285	416.868971	-334.653324	-159.531422	851.835897	-212.279217	-52.813209	80.097486	-405.701116	-51.541229	79.731476	-8.449307	
505	2.5250	650.171959	1303.624702	-83.437530	640.180797	1296.704601	-393.848669	651.209480	1369.510815	-241.834928	627.688992	1209.784092	-233.208489	550.923974	1068.568804	36.073846	718.735049	923.876394	-48.088628	541.678456	1059.590830	-502.121742	713.551706	919.742176	-415.718230	101.666706	1164.241286	-227.889323	257.491692	1150.890905	-394.010663	255.497718	1100.898941	-67.624774	275.594995	1097.573350	-359.633167	284.611022	1064.084258	-113.534215	136.087233	1196.195793	-189.567077	132.526111	1205.269484	-248.288582	200.026284	1019.381032	-50.575250	230.128749	1101.461365	-430.250855	233.105742	901.935809	-20.777075	268.253334	818.138931	-17.360640	258.823102	731.903954	-25.566221	304.976722	824.781510	-26.478205	269.179316	626.147742	-34.169931	270.948102	598.700192	-140.934851	240.373154	505.406413	-9.977140	244.572148	419.594674	-27.165394	205.670834	342.032102	-34.955471	269.183013	418.576663	-59.153773	183.660929	265.738575	-44.083587	120.933139	268.747061	-93.116871	354.519110	116.737330	-90.574373	259.268058	147.849894	-21.042032	302.810910	1018.525657	-457.475014	385.362770	990.364084	-455.635036	404.777222	1017.296148	-437.918950	444.348809	923.540632	-462.477684	491.441030	826.900788	-435.239916	498.998124	813.427389	-318.818407	190.999431	619.901164	-380.381109	122.611049	651.212767	-329.469581	223.063025	479.654473	-396.416287	414.786217	755.279991	-444.130646	358.017742	696.540384	-412.460691	274.426018	667.657754	-403.026665	377.445556	680.046634	-382.839948	285.062337	421.044003	-334.889135	-159.438776	851.837119	-212.177854	-52.824170	80.001382	-405.644666	-51.561747	79.734769	-8.446449	
